<svg width="25" height="17" viewBox="0 0 25 17" fill="none" xmlns="http://www.w3.org/2000/svg">
<path d="M9.58333 5V12M6.08333 8.5H13.0833M17.1667 6.16667L20.1729 4.36291C21.0982 3.8077 21.5609 3.53011 21.9416 3.5656C22.2735 3.59654 22.5764 3.768 22.7737 4.03672C23 4.34489 23 4.88444 23 5.96355V11.0364C23 12.1155 23 12.6551 22.7737 12.9633C22.5764 13.232 22.2735 13.4035 21.9416 13.4344C21.5609 13.4699 21.0982 13.1923 20.1729 12.6371L17.1667 10.8333M5.73333 15.5H13.4333C14.7401 15.5 15.3936 15.5 15.8927 15.2457C16.3317 15.022 16.6887 14.665 16.9123 14.226C17.1667 13.7269 17.1667 13.0734 17.1667 11.7667V5.23333C17.1667 3.92655 17.1667 3.27315 16.9123 2.77402C16.6887 2.33497 16.3317 1.97802 15.8927 1.75432C15.3936 1.5 14.7401 1.5 13.4333 1.5H5.73333C4.42655 1.5 3.77315 1.5 3.27402 1.75432C2.83497 1.97802 2.47802 2.33497 2.25432 2.77402C2 3.27315 2 3.92654 2 5.23333V11.7667C2 13.0734 2 13.7269 2.25432 14.226C2.47802 14.665 2.83497 15.022 3.27402 15.2457C3.77315 15.5 4.42654 15.5 5.73333 15.5Z" stroke="white" stroke-width="2.33333" stroke-linecap="round" stroke-linejoin="round"/>
</svg>
